<svg width="334" height="53" viewBox="0 0 334 53" fill="none" xmlns="http://www.w3.org/2000/svg">
<path d="M19.6723 5.87437C20.4376 5.8797 21.2025 5.88502 21.9326 5.88502H29.3617C30.0919 5.88502 30.8568 5.8797 31.6221 5.87437C33.6825 5.86004 35.7458 5.84568 37.1424 5.93511C42.2264 6.26069 45.7325 9.34111 46.1833 14.5753C46.2902 16.4562 46.2876 18.722 46.2846 21.3941V21.3949C46.2841 21.8535 46.2835 22.3241 46.2835 22.8068V30.2359C46.2835 30.7186 46.2841 31.1892 46.2846 31.6478C46.2876 34.3203 46.2902 36.5863 46.1833 38.4674C45.7325 43.7016 42.2264 46.782 37.1424 47.1076C35.7458 47.1971 33.6825 47.1827 31.6221 47.1684C30.8568 47.163 30.0919 47.1577 29.3617 47.1577H21.9326C21.2025 47.1577 20.4376 47.163 19.6723 47.1684C17.6119 47.1827 15.5485 47.1971 14.1519 47.1076C9.06799 46.782 5.56182 43.7016 5.11102 38.4674C5.00414 36.5865 5.00672 34.3207 5.00977 31.6486V31.6478C5.01029 31.1892 5.01083 30.7186 5.01083 30.2359V22.8068C5.01083 22.3241 5.01029 21.8535 5.00977 21.3949V21.3941C5.00672 18.722 5.00414 16.4562 5.11102 14.5753C5.56182 9.34111 9.06799 6.26069 14.1519 5.93511C15.5485 5.84568 17.6119 5.86004 19.6723 5.87437Z" fill="url(#paint0_linear_1_154)"/>
<g filter="url(#filter0_dddddd_1_154)">
<path d="M11.7207 20.5896C11.7207 19.5384 12.5729 18.6863 13.6241 18.6863H26.9475C29.6032 18.6863 31.756 20.8391 31.756 23.4947V32.3604C31.756 33.4116 30.9038 34.2637 29.8526 34.2637H16.5292C13.8735 34.2637 11.7207 32.1109 11.7207 29.4552V20.5896Z" fill="url(#paint1_linear_1_154)"/>
<path d="M13.624 18.9119H26.9473C29.4784 18.9119 31.5303 20.9637 31.5303 23.4949V32.3601C31.5303 33.2868 30.7792 34.0378 29.8525 34.0378H16.5293C13.9981 34.0378 11.9463 31.986 11.9463 29.4548V20.5896C11.9463 19.6629 12.6973 18.9119 13.624 18.9119Z" stroke="url(#paint2_linear_1_154)" stroke-width="0.450794"/>
</g>
<g filter="url(#filter1_dddddd_1_154)">
<path d="M32.958 24.2014C32.958 23.5535 33.2368 22.9369 33.7232 22.509L37.5404 19.151C38.3494 18.4394 39.6197 19.0138 39.6197 20.0912V32.897C39.6197 33.9643 38.3701 34.5423 37.5568 33.8513L34.0527 30.8742C33.3583 30.2842 32.958 29.4189 32.958 28.5076V24.2014Z" fill="url(#paint3_linear_1_154)"/>
<path d="M37.6895 19.3199C38.3528 18.7367 39.3945 19.2081 39.3945 20.0914V32.8971C39.3945 33.7721 38.37 34.2458 37.7031 33.6793L34.1982 30.7028C33.5542 30.1555 33.1836 29.3525 33.1836 28.5074V24.2018C33.1836 23.6187 33.4343 23.0635 33.8721 22.6783L37.6895 19.3199Z" stroke="url(#paint4_linear_1_154)" stroke-width="0.450794"/>
</g>
<path d="M81.8642 21.674H74.2738C74.1726 20.8947 73.9652 20.1914 73.6514 19.5639C73.3377 18.9364 72.9228 18.4 72.4066 17.9547C71.8905 17.5094 71.2782 17.1704 70.5698 16.9376C69.8714 16.6948 69.0972 16.5733 68.2471 16.5733C66.7392 16.5733 65.4387 16.9427 64.3457 17.6815C63.2628 18.4203 62.4278 19.488 61.8409 20.8846C61.264 22.2812 60.9756 23.9714 60.9756 25.955C60.9756 28.0195 61.2691 29.7501 61.856 31.1468C62.4532 32.5333 63.2881 33.5807 64.3609 34.2892C65.4437 34.9875 66.724 35.3366 68.2016 35.3366C69.0315 35.3366 69.7854 35.2304 70.4635 35.0178C71.1517 34.8053 71.7539 34.4966 72.27 34.0918C72.7963 33.6769 73.2264 33.1759 73.5604 32.5889C73.9045 31.9918 74.1423 31.3188 74.2738 30.5699L81.8642 30.6154C81.7326 31.9918 81.3329 33.348 80.6649 34.6839C80.0071 36.0198 79.1013 37.2393 77.9476 38.3424C76.7938 39.4354 75.3871 40.3058 73.7273 40.9535C72.0777 41.6012 70.1852 41.9251 68.0498 41.9251C65.2363 41.9251 62.7163 41.3077 60.4898 40.073C58.2734 38.8282 56.5226 37.0166 55.2373 34.6383C53.952 32.26 53.3093 29.3656 53.3093 25.955C53.3093 22.5343 53.9621 19.6347 55.2676 17.2564C56.5732 14.8781 58.3392 13.0716 60.5657 11.8369C62.7922 10.6022 65.2869 9.98488 68.0498 9.98488C69.9322 9.98488 71.6729 10.248 73.2719 10.7743C74.871 11.2904 76.2777 12.0495 77.4922 13.0514C78.7066 14.0432 79.6934 15.2627 80.4524 16.7099C81.2114 18.1572 81.682 19.8119 81.8642 21.674ZM86.1641 41.5V10.4099H93.6786V35.3974H106.613V41.5H86.1641ZM117.645 41.5H109.569L120.059 10.4099H130.063L140.553 41.5H132.477L125.175 18.2432H124.932L117.645 41.5ZM116.567 29.2644H133.448V34.9723H116.567V29.2644ZM159.745 19.7309C159.644 18.6176 159.193 17.7523 158.394 17.135C157.604 16.5075 156.476 16.1938 155.009 16.1938C154.037 16.1938 153.227 16.3203 152.58 16.5733C151.932 16.8263 151.446 17.1755 151.122 17.6208C150.798 18.056 150.631 18.5569 150.621 19.1237C150.601 19.5892 150.692 19.9991 150.895 20.3533C151.107 20.7075 151.411 21.0212 151.805 21.2945C152.21 21.5576 152.696 21.7904 153.263 21.9928C153.83 22.1952 154.467 22.3723 155.176 22.5241L157.847 23.1314C159.386 23.4653 160.742 23.9106 161.916 24.4673C163.1 25.0239 164.092 25.6868 164.891 26.4559C165.701 27.2251 166.313 28.1106 166.728 29.1126C167.143 30.1145 167.356 31.2379 167.366 32.4827C167.356 34.446 166.86 36.1311 165.878 37.5378C164.896 38.9446 163.484 40.0224 161.643 40.7713C159.811 41.5202 157.599 41.8947 155.009 41.8947C152.408 41.8947 150.141 41.5051 148.208 40.7258C146.275 39.9465 144.772 38.7624 143.699 37.1735C142.626 35.5846 142.075 33.5757 142.044 31.1468H149.24C149.301 32.1487 149.569 32.9836 150.044 33.6516C150.52 34.3195 151.173 34.8256 152.003 35.1697C152.843 35.5137 153.814 35.6858 154.917 35.6858C155.93 35.6858 156.79 35.5492 157.498 35.2759C158.217 35.0027 158.768 34.6231 159.153 34.1374C159.537 33.6516 159.735 33.095 159.745 32.4675C159.735 31.8805 159.553 31.3795 159.198 30.9646C158.844 30.5395 158.298 30.1752 157.559 29.8716C156.83 29.5579 155.899 29.2694 154.766 29.0063L151.517 28.2473C148.825 27.6299 146.705 26.633 145.156 25.2567C143.608 23.8702 142.839 21.9979 142.849 19.6398C142.839 17.7169 143.355 16.0319 144.397 14.5846C145.44 13.1374 146.882 12.009 148.724 11.1993C150.566 10.3897 152.666 9.98488 155.024 9.98488C157.432 9.98488 159.522 10.3948 161.293 11.2145C163.075 12.0242 164.456 13.1627 165.438 14.6302C166.419 16.0976 166.92 17.7979 166.941 19.7309H159.745ZM187.966 19.7309C187.865 18.6176 187.414 17.7523 186.615 17.135C185.825 16.5075 184.697 16.1938 183.229 16.1938C182.258 16.1938 181.448 16.3203 180.801 16.5733C180.153 16.8263 179.667 17.1755 179.343 17.6208C179.019 18.056 178.852 18.5569 178.842 19.1237C178.822 19.5892 178.913 19.9991 179.115 20.3533C179.328 20.7075 179.632 21.0212 180.026 21.2945C180.431 21.5576 180.917 21.7904 181.484 21.9928C182.05 22.1952 182.688 22.3723 183.396 22.5241L186.068 23.1314C187.607 23.4653 188.963 23.9106 190.137 24.4673C191.321 25.0239 192.313 25.6868 193.112 26.4559C193.922 27.2251 194.534 28.1106 194.949 29.1126C195.364 30.1145 195.576 31.2379 195.587 32.4827C195.576 34.446 195.081 36.1311 194.099 37.5378C193.117 38.9446 191.705 40.0224 189.863 40.7713C188.032 41.5202 185.82 41.8947 183.229 41.8947C180.628 41.8947 178.362 41.5051 176.429 40.7258C174.495 39.9465 172.993 38.7624 171.92 37.1735C170.847 35.5846 170.296 33.5757 170.265 31.1468H177.461C177.522 32.1487 177.79 32.9836 178.265 33.6516C178.741 34.3195 179.394 34.8256 180.224 35.1697C181.064 35.5137 182.035 35.6858 183.138 35.6858C184.15 35.6858 185.011 35.5492 185.719 35.2759C186.438 35.0027 186.989 34.6231 187.374 34.1374C187.758 33.6516 187.956 33.095 187.966 32.4675C187.956 31.8805 187.774 31.3795 187.419 30.9646C187.065 30.5395 186.519 30.1752 185.78 29.8716C185.051 29.5579 184.12 29.2694 182.987 29.0063L179.738 28.2473C177.046 27.6299 174.926 26.633 173.377 25.2567C171.829 23.8702 171.06 21.9979 171.07 19.6398C171.06 17.7169 171.576 16.0319 172.618 14.5846C173.661 13.1374 175.103 12.009 176.945 11.1993C178.787 10.3897 180.887 9.98488 183.245 9.98488C185.653 9.98488 187.743 10.3948 189.514 11.2145C191.295 12.0242 192.677 13.1627 193.659 14.6302C194.64 16.0976 195.141 17.7979 195.161 19.7309H187.966ZM236.787 21.674H229.197C229.095 20.8947 228.888 20.1914 228.574 19.5639C228.26 18.9364 227.846 18.4 227.329 17.9547C226.813 17.5094 226.201 17.1704 225.493 16.9376C224.794 16.6948 224.02 16.5733 223.17 16.5733C221.662 16.5733 220.361 16.9427 219.268 17.6815C218.186 18.4203 217.351 19.488 216.764 20.8846C216.187 22.2812 215.898 23.9714 215.898 25.955C215.898 28.0195 216.192 29.7501 216.779 31.1468C217.376 32.5333 218.211 33.5807 219.284 34.2892C220.366 34.9875 221.647 35.3366 223.124 35.3366C223.954 35.3366 224.708 35.2304 225.386 35.0178C226.074 34.8053 226.677 34.4966 227.193 34.0918C227.719 33.6769 228.149 33.1759 228.483 32.5889C228.827 31.9918 229.065 31.3188 229.197 30.5699L236.787 30.6154C236.655 31.9918 236.256 33.348 235.588 34.6839C234.93 36.0198 234.024 37.2393 232.87 38.3424C231.717 39.4354 230.31 40.3058 228.65 40.9535C227 41.6012 225.108 41.9251 222.973 41.9251C220.159 41.9251 217.639 41.3077 215.413 40.073C213.196 38.8282 211.445 37.0166 210.16 34.6383C208.875 32.26 208.232 29.3656 208.232 25.955C208.232 22.5343 208.885 19.6347 210.19 17.2564C211.496 14.8781 213.262 13.0716 215.488 11.8369C217.715 10.6022 220.21 9.98488 222.973 9.98488C224.855 9.98488 226.596 10.248 228.195 10.7743C229.794 11.2904 231.2 12.0495 232.415 13.0514C233.629 14.0432 234.616 15.2627 235.375 16.7099C236.134 18.1572 236.605 19.8119 236.787 21.674ZM247.019 41.5H238.943L249.432 10.4099H259.437L269.926 41.5H261.85L254.548 18.2432H254.305L247.019 41.5ZM245.941 29.2644H262.822V34.9723H245.941V29.2644ZM289.119 19.7309C289.017 18.6176 288.567 17.7523 287.767 17.135C286.978 16.5075 285.85 16.1938 284.382 16.1938C283.411 16.1938 282.601 16.3203 281.953 16.5733C281.306 16.8263 280.82 17.1755 280.496 17.6208C280.172 18.056 280.005 18.5569 279.995 19.1237C279.975 19.5892 280.066 19.9991 280.268 20.3533C280.481 20.7075 280.784 21.0212 281.179 21.2945C281.584 21.5576 282.07 21.7904 282.636 21.9928C283.203 22.1952 283.841 22.3723 284.549 22.5241L287.221 23.1314C288.759 23.4653 290.115 23.9106 291.289 24.4673C292.474 25.0239 293.465 25.6868 294.265 26.4559C295.074 27.2251 295.687 28.1106 296.102 29.1126C296.517 30.1145 296.729 31.2379 296.739 32.4827C296.729 34.446 296.233 36.1311 295.252 37.5378C294.27 38.9446 292.858 40.0224 291.016 40.7713C289.184 41.5202 286.973 41.8947 284.382 41.8947C281.781 41.8947 279.514 41.5051 277.581 40.7258C275.648 39.9465 274.145 38.7624 273.073 37.1735C272 35.5846 271.448 33.5757 271.418 31.1468H278.614C278.674 32.1487 278.942 32.9836 279.418 33.6516C279.894 34.3195 280.547 34.8256 281.376 35.1697C282.216 35.5137 283.188 35.6858 284.291 35.6858C285.303 35.6858 286.163 35.5492 286.872 35.2759C287.59 35.0027 288.142 34.6231 288.527 34.1374C288.911 33.6516 289.108 33.095 289.119 32.4675C289.108 31.8805 288.926 31.3795 288.572 30.9646C288.218 30.5395 287.671 30.1752 286.933 29.8716C286.204 29.5579 285.273 29.2694 284.139 29.0063L280.891 28.2473C278.199 27.6299 276.078 26.633 274.53 25.2567C272.981 23.8702 272.212 21.9979 272.222 19.6398C272.212 17.7169 272.728 16.0319 273.771 14.5846C274.813 13.1374 276.255 12.009 278.097 11.1993C279.939 10.3897 282.039 9.98488 284.397 9.98488C286.806 9.98488 288.896 10.3948 290.667 11.2145C292.448 12.0242 293.83 13.1627 294.811 14.6302C295.793 16.0976 296.294 17.7979 296.314 19.7309H289.119ZM299.517 16.5126V10.4099H325.795V16.5126H316.368V41.5H308.96V16.5126H299.517Z" fill="white"/>
<defs>
<filter id="filter0_dddddd_1_154" x="8.11435" y="17.3339" width="27.2481" height="22.7902" filterUnits="userSpaceOnUse" color-interpolation-filters="sRGB">
<feFlood flood-opacity="0" result="BackgroundImageFix"/>
<feColorMatrix in="SourceAlpha" type="matrix" values="0 0 0 0 0 0 0 0 0 0 0 0 0 0 0 0 0 0 127 0" result="hardAlpha"/>
<feOffset dy="0.123703"/>
<feGaussianBlur stdDeviation="0.0455686"/>
<feColorMatrix type="matrix" values="0 0 0 0 0.0509804 0 0 0 0 0.121569 0 0 0 0 0.396078 0 0 0 0.189957 0"/>
<feBlend mode="multiply" in2="BackgroundImageFix" result="effect1_dropShadow_1_154"/>
<feColorMatrix in="SourceAlpha" type="matrix" values="0 0 0 0 0 0 0 0 0 0 0 0 0 0 0 0 0 0 127 0" result="hardAlpha"/>
<feOffset dy="0.242703"/>
<feGaussianBlur stdDeviation="0.101348"/>
<feColorMatrix type="matrix" values="0 0 0 0 0.0509804 0 0 0 0 0.121569 0 0 0 0 0.396078 0 0 0 0.368551 0"/>
<feBlend mode="multiply" in2="effect1_dropShadow_1_154" result="effect2_dropShadow_1_154"/>
<feColorMatrix in="SourceAlpha" type="matrix" values="0 0 0 0 0 0 0 0 0 0 0 0 0 0 0 0 0 0 127 0" result="hardAlpha"/>
<feOffset dy="0.373252"/>
<feGaussianBlur stdDeviation="0.173572"/>
<feColorMatrix type="matrix" values="0 0 0 0 0.0509804 0 0 0 0 0.121569 0 0 0 0 0.396078 0 0 0 0.3 0"/>
<feBlend mode="multiply" in2="effect2_dropShadow_1_154" result="effect3_dropShadow_1_154"/>
<feColorMatrix in="SourceAlpha" type="matrix" values="0 0 0 0 0 0 0 0 0 0 0 0 0 0 0 0 0 0 127 0" result="hardAlpha"/>
<feOffset dy="0.547679"/>
<feGaussianBlur stdDeviation="0.551221"/>
<feColorMatrix type="matrix" values="0 0 0 0 0.0509804 0 0 0 0 0.121569 0 0 0 0 0.396078 0 0 0 0.3 0"/>
<feBlend mode="multiply" in2="effect3_dropShadow_1_154" result="effect4_dropShadow_1_154"/>
<feColorMatrix in="SourceAlpha" type="matrix" values="0 0 0 0 0 0 0 0 0 0 0 0 0 0 0 0 0 0 127 0" result="hardAlpha"/>
<feOffset dy="0.852209"/>
<feGaussianBlur stdDeviation="1.0248"/>
<feColorMatrix type="matrix" values="0 0 0 0 0.0509804 0 0 0 0 0.121569 0 0 0 0 0.396078 0 0 0 0.29 0"/>
<feBlend mode="overlay" in2="effect4_dropShadow_1_154" result="effect5_dropShadow_1_154"/>
<feColorMatrix in="SourceAlpha" type="matrix" values="0 0 0 0 0 0 0 0 0 0 0 0 0 0 0 0 0 0 127 0" result="hardAlpha"/>
<feOffset dy="2.25397"/>
<feGaussianBlur stdDeviation="1.80318"/>
<feColorMatrix type="matrix" values="0 0 0 0 0.0509804 0 0 0 0 0.121569 0 0 0 0 0.396078 0 0 0 0.45 0"/>
<feBlend mode="multiply" in2="effect5_dropShadow_1_154" result="effect6_dropShadow_1_154"/>
<feBlend mode="normal" in="SourceGraphic" in2="effect6_dropShadow_1_154" result="shape"/>
</filter>
<filter id="filter1_dddddd_1_154" x="29.3517" y="17.4842" width="13.8743" height="22.5278" filterUnits="userSpaceOnUse" color-interpolation-filters="sRGB">
<feFlood flood-opacity="0" result="BackgroundImageFix"/>
<feColorMatrix in="SourceAlpha" type="matrix" values="0 0 0 0 0 0 0 0 0 0 0 0 0 0 0 0 0 0 127 0" result="hardAlpha"/>
<feOffset dy="0.123703"/>
<feGaussianBlur stdDeviation="0.0455686"/>
<feColorMatrix type="matrix" values="0 0 0 0 0.0509804 0 0 0 0 0.121569 0 0 0 0 0.396078 0 0 0 0.189957 0"/>
<feBlend mode="multiply" in2="BackgroundImageFix" result="effect1_dropShadow_1_154"/>
<feColorMatrix in="SourceAlpha" type="matrix" values="0 0 0 0 0 0 0 0 0 0 0 0 0 0 0 0 0 0 127 0" result="hardAlpha"/>
<feOffset dy="0.242703"/>
<feGaussianBlur stdDeviation="0.101348"/>
<feColorMatrix type="matrix" values="0 0 0 0 0.0509804 0 0 0 0 0.121569 0 0 0 0 0.396078 0 0 0 0.368551 0"/>
<feBlend mode="multiply" in2="effect1_dropShadow_1_154" result="effect2_dropShadow_1_154"/>
<feColorMatrix in="SourceAlpha" type="matrix" values="0 0 0 0 0 0 0 0 0 0 0 0 0 0 0 0 0 0 127 0" result="hardAlpha"/>
<feOffset dy="0.373252"/>
<feGaussianBlur stdDeviation="0.173572"/>
<feColorMatrix type="matrix" values="0 0 0 0 0.0509804 0 0 0 0 0.121569 0 0 0 0 0.396078 0 0 0 0.3 0"/>
<feBlend mode="multiply" in2="effect2_dropShadow_1_154" result="effect3_dropShadow_1_154"/>
<feColorMatrix in="SourceAlpha" type="matrix" values="0 0 0 0 0 0 0 0 0 0 0 0 0 0 0 0 0 0 127 0" result="hardAlpha"/>
<feOffset dy="0.547679"/>
<feGaussianBlur stdDeviation="0.551221"/>
<feColorMatrix type="matrix" values="0 0 0 0 0.0509804 0 0 0 0 0.121569 0 0 0 0 0.396078 0 0 0 0.3 0"/>
<feBlend mode="multiply" in2="effect3_dropShadow_1_154" result="effect4_dropShadow_1_154"/>
<feColorMatrix in="SourceAlpha" type="matrix" values="0 0 0 0 0 0 0 0 0 0 0 0 0 0 0 0 0 0 127 0" result="hardAlpha"/>
<feOffset dy="0.852209"/>
<feGaussianBlur stdDeviation="1.0248"/>
<feColorMatrix type="matrix" values="0 0 0 0 0.0509804 0 0 0 0 0.121569 0 0 0 0 0.396078 0 0 0 0.29 0"/>
<feBlend mode="overlay" in2="effect4_dropShadow_1_154" result="effect5_dropShadow_1_154"/>
<feColorMatrix in="SourceAlpha" type="matrix" values="0 0 0 0 0 0 0 0 0 0 0 0 0 0 0 0 0 0 127 0" result="hardAlpha"/>
<feOffset dy="2.25397"/>
<feGaussianBlur stdDeviation="1.80318"/>
<feColorMatrix type="matrix" values="0 0 0 0 0.0509804 0 0 0 0 0.121569 0 0 0 0 0.396078 0 0 0 0.45 0"/>
<feBlend mode="multiply" in2="effect5_dropShadow_1_154" result="effect6_dropShadow_1_154"/>
<feBlend mode="normal" in="SourceGraphic" in2="effect6_dropShadow_1_154" result="shape"/>
</filter>
<linearGradient id="paint0_linear_1_154" x1="25.6472" y1="5.86371" x2="25.6472" y2="47.179" gradientUnits="userSpaceOnUse">
<stop stop-color="#A4C1FF"/>
<stop offset="1" stop-color="#0E78F9"/>
</linearGradient>
<linearGradient id="paint1_linear_1_154" x1="21.7383" y1="18.6863" x2="21.7383" y2="34.2637" gradientUnits="userSpaceOnUse">
<stop stop-color="white"/>
<stop offset="1" stop-color="#C5D4F7"/>
</linearGradient>
<linearGradient id="paint2_linear_1_154" x1="21.7383" y1="18.6863" x2="21.7383" y2="34.2637" gradientUnits="userSpaceOnUse">
<stop stop-color="white"/>
<stop offset="1" stop-color="#637ACA"/>
</linearGradient>
<linearGradient id="paint3_linear_1_154" x1="36.2889" y1="18.8365" x2="36.2889" y2="34.1516" gradientUnits="userSpaceOnUse">
<stop stop-color="white"/>
<stop offset="1" stop-color="#C5D4F7"/>
</linearGradient>
<linearGradient id="paint4_linear_1_154" x1="36.2889" y1="18.8365" x2="36.2889" y2="34.1516" gradientUnits="userSpaceOnUse">
<stop stop-color="white"/>
<stop offset="1" stop-color="#637ACA"/>
</linearGradient>
</defs>
</svg>
